<svg width="24" height="24" xmlns="http://www.w3.org/2000/svg">

        <g>
                <title>Layer 1</title>
                <path fill="#7f7f7f" id="svg_1" d="m21.82361,20.96432l-4.90494,-4.82656c1.28445,-1.39551 2.07365,-3.2411 2.07365,-5.27198c-0.00062,-4.34442 -3.57899,-7.86577 -7.99348,-7.86577c-4.41448,0 -7.99286,3.52135 -7.99286,7.86577s3.57837,7.86577 7.99286,7.86577c1.90736,0 3.65675,-0.65973 5.03088,-1.75653l4.92397,4.84559c0.23992,0.23635 0.62943,0.23635 0.86936,0c0.24048,-0.23632 0.24048,-0.61994 0.00056,-0.85629zm-10.82477,-3.44297c-3.73513,0 -6.76304,-2.97979 -6.76304,-6.65558s3.02791,-6.65558 6.76304,-6.65558c3.73517,0 6.76304,2.97979 6.76304,6.65558s-3.02788,6.65558 -6.76304,6.65558z"/>
        </g>
</svg>