<svg width="24" height="24" xmlns="http://www.w3.org/2000/svg">
            <path stroke="null" id="svg_1" d="m20.86607,5.79753l-0.49128,-1.47265c-0.18707,-0.56088 -0.7101,-0.93775 -1.3012,-0.93775l-4.12903,0l0,-1.34432c0,-0.6719 -0.54628,-1.2187 -1.21802,-1.2187l-3.7812,0c-0.67156,0 -1.21802,0.54679 -1.21802,1.2187l0,1.34432l-4.12886,0c-0.59127,0 -1.11429,0.37686 -1.30137,0.93775l-0.49128,1.47265c-0.11187,0.33527 -0.05517,0.70653 0.15142,0.99326c0.2066,0.28672 0.54085,0.45801 0.89429,0.45801l0.51352,0l1.13025,13.97638c0.08403,1.03705 0.96406,1.84952 2.00383,1.84952l8.90298,0c1.0396,0 1.9198,-0.81246 2.00366,-1.84969l1.13025,-13.97621l0.28435,0c0.35344,0 0.68769,-0.17129 0.89429,-0.45784c0.2066,-0.28672 0.2633,-0.65815 0.15142,-0.99343zm-10.835,-3.66967l3.60974,0l0,1.25927l-3.60974,0l0,-1.25927zm7.07519,18.99207c-0.02954,0.36515 -0.33884,0.65102 -0.70416,0.65102l-8.90298,0c-0.36532,0 -0.67462,-0.28587 -0.70416,-0.65102l-1.12193,-13.87113l12.555,0l-1.12176,13.87113zm-12.97515,-15.17488l0.40284,-1.20766c0.00917,-0.02784 0.03514,-0.04651 0.06451,-0.04651l14.47513,0c0.02937,0 0.05517,0.01867 0.06451,0.04651l0.40284,1.20766l-15.40982,0zm0,0"/>
            <path stroke="null" id="svg_2" d="m15.02706,21.07375c0.01154,0.00068 0.02292,0.00085 0.03446,0.00085c0.34444,0 0.63235,-0.26992 0.65034,-0.61792l0.61215,-11.75102c0.01867,-0.35955 -0.25769,-0.6663 -0.61707,-0.68497c-0.3604,-0.01918 -0.66613,0.25752 -0.68498,0.61707l-0.61198,11.75102c-0.01867,0.35955 0.25752,0.6663 0.61707,0.68498zm0,0"/>
            <path stroke="null" id="svg_3" d="m7.98904,20.45821c0.01901,0.3475 0.30658,0.61639 0.65034,0.61639c0.01188,0 0.02411,-0.00034 0.03616,-0.00102c0.35938,-0.01952 0.6349,-0.32679 0.61537,-0.68633l-0.64118,-11.75102c-0.01952,-0.35955 -0.32678,-0.63507 -0.68633,-0.61537c-0.35938,0.01952 -0.6349,0.32678 -0.61537,0.68633l0.64101,11.75102zm0,0"/>
            <path stroke="null" id="svg_4" d="m11.84324,21.0746c0.36006,0 0.65187,-0.29181 0.65187,-0.65187l0,-11.75102c0,-0.36006 -0.29182,-0.65187 -0.65187,-0.65187s-0.65187,0.29181 -0.65187,0.65187l0,11.75102c0,0.36006 0.29181,0.65187 0.65187,0.65187zm0,0" opacity="undefined"/>
</svg>