<svg width="24" height="24" xmlns="http://www.w3.org/2000/svg">
    <path stroke="null" id="svg_1" d="m22.15708,11.20055l-9.06702,0l0,-9.06723c0,-0.6255 -0.50783,-1.13333 -1.13353,-1.13333c-0.6255,0 -1.13333,0.50783 -1.13333,1.13333l0,9.06723l-9.06723,0c-0.6255,0 -1.13333,0.50783 -1.13333,1.13333c0,0.62571 0.50783,1.13353 1.13333,1.13353l9.06723,0l0,9.06702c0,0.62571 0.50783,1.13353 1.13333,1.13353c0.62571,0 1.13353,-0.50783 1.13353,-1.13353l0,-9.06702l9.06702,0c0.62571,0 1.13353,-0.50783 1.13353,-1.13353c0,-0.6255 -0.50783,-1.13333 -1.13353,-1.13333zm0,0"/>
</svg>