<svg width="24" height="24" xmlns="http://www.w3.org/2000/svg">
        <path stroke="null" id="svg_1" d="m20.71906,1.4662c-1.2232,-1.22104 -3.20401,-1.22104 -4.42721,0l-1.10822,1.11429l-11.79695,11.79068l-0.02507,0.02527c-0.00607,0.00607 -0.00607,0.01254 -0.01254,0.01254c-0.01254,0.0188 -0.03134,0.03741 -0.04368,0.05621c0,0.00627 -0.00646,0.00627 -0.00646,0.01254c-0.01254,0.0188 -0.01861,0.03134 -0.03134,0.05014c-0.00607,0.00627 -0.00607,0.01234 -0.01234,0.0188c-0.00627,0.0188 -0.01254,0.03134 -0.019,0.05014c0,0.00607 -0.00607,0.00607 -0.00607,0.01254l-2.61739,7.87077c-0.07678,0.22407 -0.01841,0.47224 0.15023,0.63853c0.1185,0.11693 0.27833,0.18235 0.44462,0.18177c0.06797,-0.00118 0.13535,-0.01175 0.20037,-0.03134l7.8647,-2.62366c0.00607,0 0.00607,0 0.01254,-0.00607c0.01978,-0.00588 0.03878,-0.0143 0.05621,-0.02527c0.0049,-0.00059 0.00921,-0.00274 0.01273,-0.00607c0.01861,-0.01254 0.04368,-0.02527 0.06248,-0.0378c0.01861,-0.01234 0.03761,-0.03114 0.05641,-0.04368c0.00627,-0.00646 0.01234,-0.00646 0.01234,-0.01254c0.00646,-0.00627 0.019,-0.01234 0.02527,-0.02507l12.90517,-12.90517c1.22104,-1.2232 1.22104,-3.20401 0,-4.42701l-1.69681,-1.69054zm-11.64672,17.70767l-4.35807,-4.35787l10.90771,-10.90771l4.35807,4.35787l-10.90771,10.90771zm-4.97192,-3.19951l3.80729,3.80709l-5.717,1.90345l1.90972,-5.71054zm17.43267,-9.26731l-0.6638,0.67007l-4.35826,-4.35826l0.67026,-0.66987c0.73313,-0.73255 1.92147,-0.73255 2.6548,0l1.70307,1.70307c0.72765,0.73646 0.72491,1.92206 -0.00607,2.65499zm0,0"/>
</svg>